<?xml version="1.0" standalone="no"?><!DOCTYPE svg PUBLIC "-//W3C//DTD SVG 1.1//EN" "http://www.w3.org/Graphics/SVG/1.1/DTD/svg11.dtd"><svg t="1543301593704" class="icon" style="" viewBox="0 0 1024 1024" version="1.1" xmlns="http://www.w3.org/2000/svg" p-id="6074" xmlns:xlink="http://www.w3.org/1999/xlink" width="128" height="128"><defs><style type="text/css"></style></defs><path d="M848 48v928H176V48h672m0-48H176a48 48 0 0 0-48 48v928a48 48 0 0 0 48 48h672a48 48 0 0 0 48-48V48a48 48 0 0 0-48-48zM512 288a96 96 0 1 1-96 96 96.11 96.11 0 0 1 96-96z m0-16a112 112 0 1 0 112 112 112 112 0 0 0-112-112z m255.79 101.52C762.29 237 649.88 128 512 128S261.71 237 256.21 373.52Q256 378.74 256 384v416a96 96 0 0 1 96 96h320l96-96V384q0-5.26-0.21-10.48zM494 872H373.59A120.37 120.37 0 0 0 280 778.41V658h22v27.31L466.69 850H494z m250-81.94L662.06 872H510v-38h-36.69L318 678.69V642h-38V492.37C320.81 579.58 409.35 640 512 640s191.19-60.42 232-147.63z m-0.39-392.54a232 232 0 0 1-463.22 0Q280 390.8 280 384q0-5.26 0.24-10.48a232 232 0 0 1 463.52 0q0.24 5.22 0.24 10.48 0 6.79-0.39 13.52zM256 96a32 32 0 1 0 32 32 32 32 0 0 0-32-32z m0 768a32 32 0 1 0 32 32 32 32 0 0 0-32-32zM768 96a32 32 0 1 0 32 32 32 32 0 0 0-32-32z" fill="#ffffff" p-id="6075"></path><path d="M544 384a32 32 0 1 1-32-32 32 32 0 0 1 32 32z m160 544h96v-96z" fill="#ffffff" p-id="6076"></path></svg>