<?xml version="1.0" standalone="no"?><!DOCTYPE svg PUBLIC "-//W3C//DTD SVG 1.1//EN" "http://www.w3.org/Graphics/SVG/1.1/DTD/svg11.dtd"><svg t="1543301950670" class="icon" style="" viewBox="0 0 1604 1024" version="1.1" xmlns="http://www.w3.org/2000/svg" p-id="7653" xmlns:xlink="http://www.w3.org/1999/xlink" width="200.5" height="128"><defs><style type="text/css"></style></defs><path d="M395.684733 185.558916m-37.161804 0a37.161804 37.161804 0 1 0 74.323608 0 37.161804 37.161804 0 1 0-74.323608 0Z" p-id="7654" fill="#ffffff"></path><path d="M395.684733 223.664511a38.105596 38.105596 0 1 1 38.105596-38.105595 38.105596 38.105596 0 0 1-38.105596 38.105595z m0-74.441582a36.335986 36.335986 0 1 0 36.335986 36.335987 36.335986 36.335986 0 0 0-36.335986-36.335987zM553.769868 286.426669a42.352659 42.352659 0 1 1 42.470633-42.352659 42.352659 42.352659 0 0 1-42.470633 42.352659z m0-74.441582a32.088923 32.088923 0 1 0 32.088923 32.088923A31.970949 31.970949 0 0 0 553.769868 212.574957z" p-id="7655" fill="#ffffff"></path><path d="M553.769868 244.07401m-24.420614 0a24.420614 24.420614 0 1 0 48.841228 0 24.420614 24.420614 0 1 0-48.841228 0Z" p-id="7656" fill="#ffffff"></path><path d="M1596.30594 632.208408a23.594796 23.594796 0 0 0-32.678793 2.005558 1045.367447 1045.367447 0 0 1-100.74978 99.452066l-126.23216-122.456992a14.628774 14.628774 0 0 0-2.595428-2.123532 129.771379 129.771379 0 0 1-27.016041-26.190224 126.82203 126.82203 0 0 1-26.426172-77.980801 130.715171 130.715171 0 0 1 3.421245-29.729444l23.594797-122.221044a19.347733 19.347733 0 0 0 0-4.483011 80.222307 80.222307 0 0 0-154.07402-31.617027v0.943791l-98.036378 230.285212a10.027788 10.027788 0 0 0-0.707844 2.005557 38.341544 38.341544 0 0 1-2.241506 5.190856 33.976507 33.976507 0 0 1-30.083365 18.167993H690.73766c4.011115-12.505242 7.550335-25.128458 10.735632-37.869648a13.684982 13.684982 0 0 0 0-2.123532 30.909183 30.909183 0 0 1 1.061766-4.483011 12.859164 12.859164 0 0 0 0-2.005558 669.974239 669.974239 0 0 0 17.814071-153.366175 661.244165 661.244165 0 0 0-49.78502-252.936216c-5.544777-13.567008-11.797398-27.25199-18.285967-40.58305a17.342175 17.342175 0 0 0-2.831375-4.365037 106.176583 106.176583 0 0 0-82.581787-39.40331 109.833777 109.833777 0 0 0-23.594797 2.713402 80.930151 80.930151 0 0 0-48.723254 2.35948 106.176583 106.176583 0 0 0-190.292031 65.593533L181.443983 233.10243l-0.707844 0.707844A133.664521 133.664521 0 0 0 342.124546 444.39383l1.415687-0.943792 1.887584-1.179739A34.094481 34.094481 0 0 1 396.628525 472.117716a34.330429 34.330429 0 0 1-9.437919 23.594796l-0.825818 0.825818-0.943791 0.943792-239.841104 239.487182a1028.143246 1028.143246 0 0 1-105.114817-102.755338 23.594796 23.594796 0 0 0-34.684351 30.555261 1066.956686 1066.956686 0 0 0 125.288368 120.333461l1.17974 1.17974a1075.096891 1075.096891 0 0 0 90.486044 66.065429 1061.765831 1061.765831 0 0 0 164.101807 87.41872l23.594797 9.791841a1052.799808 1052.799808 0 0 0 361.354304 73.969686H801.86915c13.802956 0 27.487938 0 41.290894-0.825818h8.02223c13.567008-0.707844 27.016042-1.533662 40.465076-2.713401h5.426803c13.33106-1.17974 26.780094-2.595428 40.111154-4.365038h2.477453c13.92093-1.887584 27.959834-4.011115 41.76279-6.370595l5.426803-1.061765a1013.396499 1013.396499 0 0 0 83.525578-18.285968l4.247064-1.061765a611.105223 611.105223 0 0 0 39.757231-11.797399 17.932045 17.932045 0 0 0 2.477454 0 1052.681834 1052.681834 0 0 0 321.715047-165.163573l2.005558-1.415688c11.797398-8.848049 23.594796-17.932045 34.68435-27.369964a7.078439 7.078439 0 0 0 0.943792-0.943791 1060.586091 1060.586091 0 0 0 121.277253-117.03019 23.594796 23.594796 0 0 0-1.17974-32.914741zM1049.968433 946.96299c-12.505242 3.067324-25.010484 6.016673-37.515726 8.730075l-3.303272 0.58987c-11.797398 2.595428-23.594796 4.836933-36.45396 6.960465l-3.775167 0.58987c-12.74119 2.123532-25.364406 4.011115-38.105596 5.662751l-5.898699 0.707844c-11.797398 1.415688-23.594796 2.713402-36.100039 3.775167h-2.949349c-12.505242 1.061766-25.010484 1.76961-37.515726 2.35948h-8.376153c-12.505242 0-25.128458 0.825818-37.751674 0.825817h-28.785651A1016.69977 1016.69977 0 0 1 542.680314 944.013641a469.654419 469.654419 0 0 1 516.372115 0.825818l-2.949349 0.825817zM417.745867 530.278889a45.891879 45.891879 0 0 0 3.421246-3.53922 80.340281 80.340281 0 0 0-98.508274-124.580524l-4.71896 2.831376a87.300746 87.300746 0 0 1-131.187067-75.621322 86.82885 86.82885 0 0 1 26.544146-62.762158l131.187067-134.490339a23.594796 23.594796 0 0 0 6.488569-18.875837 54.032083 54.032083 0 0 1 0-6.252621 60.402678 60.402678 0 0 1 115.024632-25.246432 23.594796 23.594796 0 0 0 35.392194 8.258179 34.330429 34.330429 0 0 1 33.504611-5.426803 23.594796 23.594796 0 0 0 14.864721 0l2.713402-0.58987A638.947082 638.947082 0 0 1 672.451693 428.231395a622.194777 622.194777 0 0 1-13.684982 87.300746 68.070987 68.070987 0 0 0-2.35948 9.673866A617.357844 617.357844 0 0 1 637.059499 588.558035a23.594796 23.594796 0 0 0 0 14.392826 19.819629 19.819629 0 0 0-5.30883 15.572566A646.733365 646.733365 0 0 0 648.856897 717.031701a47.779462 47.779462 0 0 0 46.009852 35.392194h245.149933a117.973981 117.973981 0 0 0 107.710245-69.250727 239.841104 239.841104 0 0 0 19.229759-68.188961 16.398383 16.398383 0 0 0-1.17974-8.258179 77.744854 77.744854 0 0 0 27.605912-29.965391 68.542883 68.542883 0 0 0 5.072881-11.797398l97.564482-229.223445v-0.943792a33.976507 33.976507 0 0 1 65.239612 11.797398l-23.594796 119.153721a174.24757 174.24757 0 0 0 66.891247 179.910321l121.277253 117.973981c-5.308829 4.129089-10.735632 8.140205-16.162436 11.797399l-8.02223 6.016673c-6.252621 4.600985-12.505242 9.083997-18.875837 13.449033l-5.898699 4.12909c-11.797398 7.786283-22.886952 15.336618-34.448403 22.651004l-9.083996 5.662751-18.993811 11.797398-13.449034 7.550335c-8.848049 5.072881-17.814071 9.909814-26.780094 14.628774l-15.572565 8.022231-15.10067 7.550334c-9.201971 4.483011-18.639889 8.848049-28.077808 12.977138l-12.74119 5.544777c-8.612101 3.775167-17.224201 7.314387-25.954275 10.853607l-6.842491 2.713401c-11.089554 4.365037-22.297082 8.376153-33.504611 11.797398l-8.730075 3.067324c-4.365037 1.415688-8.848049 2.713402-13.213086 4.247063a516.608064 516.608064 0 0 0-629.509163-1.061766 1018.115458 1018.115458 0 0 1-303.075158-160.798536z" p-id="7657" fill="#ffffff"></path></svg>