<?xml version="1.0" standalone="no"?><!DOCTYPE svg PUBLIC "-//W3C//DTD SVG 1.1//EN" "http://www.w3.org/Graphics/SVG/1.1/DTD/svg11.dtd"><svg t="1546592883721" class="icon" style="" viewBox="0 0 1024 1024" version="1.1" xmlns="http://www.w3.org/2000/svg" p-id="2691" xmlns:xlink="http://www.w3.org/1999/xlink" width="128" height="128"><defs><style type="text/css"></style></defs><path d="M227.6352 426.5984a43.7248 43.7248 0 1 0-44.6976 75.1104 43.7248 43.7248 0 0 0 44.6976-75.1104zM356.096 509.2864a38.4 38.4 0 0 0-39.2704 66.048l239.9744 142.9504a38.5024 38.5024 0 0 0 58.0608-32.9728 38.5024 38.5024 0 0 0-18.7392-33.0752L356.096 509.2864z" fill="#FFFFFF" p-id="2692"></path><path d="M1015.552 459.4688l-0.1024-0.2048a38.5536 38.5536 0 0 0-5.888-14.5408c-0.8192-1.1776-2.048-1.9968-2.9696-3.1232a37.4784 37.4784 0 0 0-8.3456-7.7312c-0.4096-0.256-0.6656-0.768-1.0752-1.024l-483.2256-284.3136a38.3488 38.3488 0 1 0-38.8608 66.2016l443.904 261.2224-126.4128 149.248L200.1408 272.2304l147.5584-174.2848A38.3488 38.3488 0 1 0 289.0752 48.3328l-176.8448 208.896a37.888 37.888 0 0 0-5.6832 10.8544c-1.3312 1.536-3.0208 2.7136-4.0448 4.5056L33.9456 387.584a128.6144 128.6144 0 0 0 44.6464 176.0768l188.928 112.5376-47.1552 97.024H85.3504l-0.3584-57.088a38.4 38.4 0 0 0-38.4-38.144H46.336a38.4 38.4 0 0 0-38.144 38.4v0.256l1.3824 234.496a38.4 38.4 0 0 0 38.4 38.144h0.256a38.4 38.4 0 0 0 38.144-38.4v-0.256l-0.6144-100.608H244.48a37.1712 37.1712 0 0 0 16.5888-4.1984 39.936 39.936 0 0 0 8.9088-5.9904c0.6144-0.5632 1.3312-0.9728 1.8944-1.5872a38.1952 38.1952 0 0 0 7.0656-9.8304l54.8352-112.7424 249.4464 148.5824a127.488 127.488 0 0 0 97.2288 14.08 127.232 127.232 0 0 0 78.848-58.6752l19.0464-32c27.8016 17.5616 55.04 24.1664 79.3088 24.1664 35.0208 0 63.9488-13.3632 79.872-25.7536a38.6048 38.6048 0 0 0 13.824-22.016l63.8976-289.9456a37.888 37.888 0 0 0 0.2048-11.776c-0.1024-0.9216 0.3072-1.8432 0.1024-2.8672z m-393.0112 338.7904L117.9136 497.664c-11.7248-7.0144-20.1728-18.2272-23.552-31.6928s-1.3824-27.3408 5.5808-39.1168l48.8448-82.0224 593.3568 353.4848-48.8448 82.0224a51.5584 51.5584 0 0 1-70.7584 17.92z m195.1232-76.4928l10.1376-17.0496c0.8192-1.4336 0.9216-2.9696 1.5872-4.4544 0.2048-0.256 0.5632-0.3584 0.768-0.6144l76.6976-90.5728-26.9312 122.1632c-12.288 4.9152-34.7136 8.5504-62.2592-9.472z" fill="#FFFFFF" p-id="2693"></path></svg>