<?xml version="1.0" standalone="no"?><!DOCTYPE svg PUBLIC "-//W3C//DTD SVG 1.1//EN" "http://www.w3.org/Graphics/SVG/1.1/DTD/svg11.dtd"><svg t="1548320045342" class="icon" style="" viewBox="0 0 1064 1024" version="1.1" xmlns="http://www.w3.org/2000/svg" p-id="3177" xmlns:xlink="http://www.w3.org/1999/xlink" width="133" height="128"><defs><style type="text/css"></style></defs><path d="M1010.41249 780.181261a642.01202 642.01202 0 0 1-927.248788 0 22.929001 22.929001 0 0 0-33.017761 31.642021 687.870021 687.870021 0 0 0 993.74289 0A22.929001 22.929001 0 0 0 1010.41249 780.181261z" fill="#0258AA" p-id="3178"></path><path d="M293.651928 653.154597l-24.763321 183.432006a22.929001 22.929001 0 0 0 19.718941 25.68048h3.21006a22.929001 22.929001 0 0 0 22.470421-19.71894l24.763321-183.432006a91.716003 91.716003 0 0 1 91.716002-87.130203h237.544448a91.716003 91.716003 0 0 1 91.716003 91.716003L781.122483 839.796663a22.470421 22.470421 0 0 0 25.680481 19.71894 22.929001 22.929001 0 0 0 19.718941-25.68048l-24.304741-178.387626a137.574004 137.574004 0 0 0-137.574004-131.612464H429.391612a134.363944 134.363944 0 0 0-135.739684 129.319564zM575.220057 417.44447a282.485289 282.485289 0 0 0 147.204184-45.858002 22.929001 22.929001 0 0 0-23.84616-39.437881 206.819586 206.819586 0 0 1-236.168708 0 22.929001 22.929001 0 0 0-28.89054 35.769241 237.085867 237.085867 0 0 0 141.701224 49.526642z" fill="#0258AA" p-id="3179"></path><path d="M976.936149 283.080526a156.834365 156.834365 0 0 0-134.363944-14.215981 134.822524 134.822524 0 0 0-77.500022-24.304741H455.530673C395.915271 59.752059 215.693326 12.976897 139.110463 0.595237a60.991142 60.991142 0 0 0-66.952682 43.106521L1.536459 275.743245a38.062141 38.062141 0 0 0 22.011841 45.858002l38.520721 17.42604a37.144981 37.144981 0 0 0 42.189361-7.33728L180.382665 264.737325l12.84024 536.538617a22.929001 22.929001 0 0 0 22.929001 22.47042 22.929001 22.929001 0 0 0 22.470421-23.38758L225.782086 246.852704a37.603561 37.603561 0 0 0-25.221901-34.852081 36.686401 36.686401 0 0 0-39.437881 8.713021L76.743582 295.003606 47.394461 282.621946l68.787002-225.621367A14.67456 14.67456 0 0 1 132.690343 46.453238C202.394505 57.459159 368.400471 100.56568 414.258472 272.991765a22.929001 22.929001 0 0 0 22.011841 16.967461h326.96755a91.716003 91.716003 0 0 1 91.716003 91.716003v420.059293a22.929001 22.929001 0 0 0 45.858001 0V380.299489a16.508881 16.508881 0 0 1 11.00592 0c27.056221 16.508881 38.062141 101.346183 37.603561 156.375784a22.929001 22.929001 0 0 0 22.929001 22.929001 22.929001 22.929001 0 0 0 22.929001-22.929001c0-26.597641 0-160.044425-59.615402-195.813666a62.825462 62.825462 0 0 0-43.565101-7.79586 137.574004 137.574004 0 0 0-13.298821-27.514801 101.346183 101.346183 0 0 1 72.914223 16.050301c45.858001 32.100601 70.162742 114.645004 65.576942 238.461607a22.929001 22.929001 0 0 0 22.01184 23.846161 22.929001 22.929001 0 0 0 22.929001-22.011841c5.96154-143.535544-22.929001-237.085867-85.295883-278.816648z" fill="#0258AA" p-id="3180"></path><path d="M142.320524 113.40592a23.387581 23.387581 0 0 0 0 32.100601 21.553261 21.553261 0 0 0 16.50888 6.878701 21.094681 21.094681 0 0 0 15.591721-6.420121 22.011841 22.011841 0 0 0 0-32.559181 22.929001 22.929001 0 0 0-32.100601 0z" fill="#0258AA" p-id="3181"></path></svg>